<!DOCTYPE svg PUBLIC "-//W3C//DTD SVG 1.1//EN" "http://www.w3.org/Graphics/SVG/1.1/DTD/svg11.dtd">
<!-- Uploaded to: SVG Repo, www.svgrepo.com, Transformed by: SVG Repo Mixer Tools -->
<svg version="1.1" id="Layer_1" xmlns="http://www.w3.org/2000/svg" xmlns:xlink="http://www.w3.org/1999/xlink" viewBox="0 0 490 490" xml:space="preserve" width="256px" height="256px" fill="#000000">
<g id="SVGRepo_bgCarrier" stroke-width="0"/>
<g id="SVGRepo_tracerCarrier" stroke-linecap="round" stroke-linejoin="round"/>
<g id="SVGRepo_iconCarrier"> <g> <g> <path style="fill:#AFB6BB;" d="M365,366v59h-30v-51C345.5,372.7,355.5,370,365,366z"/> <rect x="215" y="375" style="fill:#AFB6BB;" width="30" height="50"/> <path style="fill:#eab308;" d="M365,366c-9.5,4-19.5,6.7-30,8v51v30h-60v-80h-30h-30v50v30h-60v-81c-45.4-5.8-83-37.1-98-79H20 c-5.5,0-10-4.5-10-10v-70c0-5.5,4.5-10,10-10h30.5c4-47.6,36.1-87.4,79.5-103V35c0,0,46.5,16.8,63.7,60H320c66,0,120,54,120,120 v40C440,305.1,408.9,348.2,365,366z"/> </g> <circle style="fill:#231F20;" cx="115" cy="190" r="15"/> <path style="fill:#231F20;" d="M470,170v45c0,4.766-3.297,4.933-5.113,5H450v-5c0-71.682-58.317-130-130-130H200.224 c-20.292-42.173-64.851-58.691-66.826-59.405c-3.065-1.108-6.477-0.652-9.144,1.22C121.587,28.688,120,31.742,120,35v60.172 C78.333,112.753,48.591,150.721,41.638,195H20c-11.028,0-20,8.972-20,20v70c0,11.028,8.972,20,20,20h30.165 c8.304,19.722,21.383,37.177,38.125,50.795c16.549,13.462,36.003,22.6,56.71,26.703V455c0,5.523,4.477,10,10,10h60 c5.523,0,10-4.477,10-10v-20h20c5.522,0,10-4.477,10-10v-40h10v70c0,5.523,4.478,10,10,10h60c5.522,0,10-4.477,10-10v-20h20 c5.522,0,10-4.477,10-10v-52.478c20.989-9.812,38.945-24.988,52.199-44.238C442.115,306.619,450,281.278,450,255v-15h15 c10.049,0,25-6.658,25-25v-45H470z M235,415h-10v-30h10V415z M345,415v-32.483c3.369-0.666,6.703-1.479,10-2.422V415H345z M430,255 c0,22.209-6.665,43.628-19.273,61.942c-12.327,17.904-29.438,31.664-49.484,39.791c-0.041,0.017-0.082,0.034-0.123,0.051 c-8.721,3.672-17.922,6.125-27.348,7.292c-5.01,0.62-8.771,4.876-8.771,9.924v71h-40v-60h20v-20H185v20h20v60h-40v-71 c0-5.033-3.74-9.282-8.733-9.919c-20.253-2.587-39.396-10.817-55.357-23.801c-15.763-12.822-27.691-29.645-34.495-48.65 C64.991,287.654,61.223,285,57,285H20v-70h30.5c5.198,0,9.53-3.983,9.965-9.163c3.591-42.73,32.213-79.795,72.918-94.427 c3.97-1.427,6.617-5.192,6.617-9.411v-51.06c13.804,7.873,34.626,23.189,44.41,47.76c1.515,3.804,5.196,6.301,9.291,6.301H320 c60.654,0,110,49.346,110,110V255z"/> <g> <rect x="190" y="130" style="fill:#231F20;" width="145" height="20"/> </g> </g> </g>
</svg>